<svg width="1118" height="288" viewBox="0 0 1118 288" fill="none" xmlns="http://www.w3.org/2000/svg">
<path d="M477.382 210.06H487.462V216H469.687V184.41H477.382V210.06ZM502.563 216.36C500.103 216.36 497.883 215.835 495.903 214.785C493.953 213.735 492.408 212.235 491.268 210.285C490.158 208.335 489.603 206.055 489.603 203.445C489.603 200.865 490.173 198.6 491.313 196.65C492.453 194.67 494.013 193.155 495.993 192.105C497.973 191.055 500.193 190.53 502.653 190.53C505.113 190.53 507.333 191.055 509.313 192.105C511.293 193.155 512.853 194.67 513.993 196.65C515.133 198.6 515.703 200.865 515.703 203.445C515.703 206.025 515.118 208.305 513.948 210.285C512.808 212.235 511.233 213.735 509.223 214.785C507.243 215.835 505.023 216.36 502.563 216.36ZM502.563 209.7C504.033 209.7 505.278 209.16 506.298 208.08C507.348 207 507.873 205.455 507.873 203.445C507.873 201.435 507.363 199.89 506.343 198.81C505.353 197.73 504.123 197.19 502.653 197.19C501.153 197.19 499.908 197.73 498.918 198.81C497.928 199.86 497.433 201.405 497.433 203.445C497.433 205.455 497.913 207 498.873 208.08C499.863 209.16 501.093 209.7 502.563 209.7ZM529.325 190.53C531.095 190.53 532.64 190.89 533.96 191.61C535.31 192.33 536.345 193.275 537.065 194.445V190.89H544.76V215.955C544.76 218.265 544.295 220.35 543.365 222.21C542.465 224.1 541.07 225.6 539.18 226.71C537.32 227.82 534.995 228.375 532.205 228.375C528.485 228.375 525.47 227.49 523.16 225.72C520.85 223.98 519.53 221.61 519.2 218.61H526.805C527.045 219.57 527.615 220.32 528.515 220.86C529.415 221.43 530.525 221.715 531.845 221.715C533.435 221.715 534.695 221.25 535.625 220.32C536.585 219.42 537.065 217.965 537.065 215.955V212.4C536.315 213.57 535.28 214.53 533.96 215.28C532.64 216 531.095 216.36 529.325 216.36C527.255 216.36 525.38 215.835 523.7 214.785C522.02 213.705 520.685 212.19 519.695 210.24C518.735 208.26 518.255 205.98 518.255 203.4C518.255 200.82 518.735 198.555 519.695 196.605C520.685 194.655 522.02 193.155 523.7 192.105C525.38 191.055 527.255 190.53 529.325 190.53ZM537.065 203.445C537.065 201.525 536.525 200.01 535.445 198.9C534.395 197.79 533.105 197.235 531.575 197.235C530.045 197.235 528.74 197.79 527.66 198.9C526.61 199.98 526.085 201.48 526.085 203.4C526.085 205.32 526.61 206.85 527.66 207.99C528.74 209.1 530.045 209.655 531.575 209.655C533.105 209.655 534.395 209.1 535.445 207.99C536.525 206.88 537.065 205.365 537.065 203.445ZM561.757 216.36C559.297 216.36 557.077 215.835 555.097 214.785C553.147 213.735 551.602 212.235 550.462 210.285C549.352 208.335 548.797 206.055 548.797 203.445C548.797 200.865 549.367 198.6 550.507 196.65C551.647 194.67 553.207 193.155 555.187 192.105C557.167 191.055 559.387 190.53 561.847 190.53C564.307 190.53 566.527 191.055 568.507 192.105C570.487 193.155 572.047 194.67 573.187 196.65C574.327 198.6 574.897 200.865 574.897 203.445C574.897 206.025 574.312 208.305 573.142 210.285C572.002 212.235 570.427 213.735 568.417 214.785C566.437 215.835 564.217 216.36 561.757 216.36ZM561.757 209.7C563.227 209.7 564.472 209.16 565.492 208.08C566.542 207 567.067 205.455 567.067 203.445C567.067 201.435 566.557 199.89 565.537 198.81C564.547 197.73 563.317 197.19 561.847 197.19C560.347 197.19 559.102 197.73 558.112 198.81C557.122 199.86 556.627 201.405 556.627 203.445C556.627 205.455 557.107 207 558.067 208.08C559.057 209.16 560.287 209.7 561.757 209.7ZM589.194 216.36C587.004 216.36 585.054 215.985 583.344 215.235C581.634 214.485 580.284 213.465 579.294 212.175C578.304 210.855 577.749 209.385 577.629 207.765H585.234C585.324 208.635 585.729 209.34 586.449 209.88C587.169 210.42 588.054 210.69 589.104 210.69C590.064 210.69 590.799 210.51 591.309 210.15C591.849 209.76 592.119 209.265 592.119 208.665C592.119 207.945 591.744 207.42 590.994 207.09C590.244 206.73 589.029 206.34 587.349 205.92C585.549 205.5 584.049 205.065 582.849 204.615C581.649 204.135 580.614 203.4 579.744 202.41C578.874 201.39 578.439 200.025 578.439 198.315C578.439 196.875 578.829 195.57 579.609 194.4C580.419 193.2 581.589 192.255 583.119 191.565C584.679 190.875 586.524 190.53 588.654 190.53C591.804 190.53 594.279 191.31 596.079 192.87C597.909 194.43 598.959 196.5 599.229 199.08H592.119C591.999 198.21 591.609 197.52 590.949 197.01C590.319 196.5 589.479 196.245 588.429 196.245C587.529 196.245 586.839 196.425 586.359 196.785C585.879 197.115 585.639 197.58 585.639 198.18C585.639 198.9 586.014 199.44 586.764 199.8C587.544 200.16 588.744 200.52 590.364 200.88C592.224 201.36 593.739 201.84 594.909 202.32C596.079 202.77 597.099 203.52 597.969 204.57C598.869 205.59 599.334 206.97 599.364 208.71C599.364 210.18 598.944 211.5 598.104 212.67C597.294 213.81 596.109 214.71 594.549 215.37C593.019 216.03 591.234 216.36 589.194 216.36Z" fill="#7E1CFE"/>
</svg>
